# xmcd CD database file
#
# Track frame offsets:
#	150
#	25828
#	49012
#	66796
#	92287
#	106088
#	127014
#	161267
#	174081
#	194579
#	208598
#	242487
#	266344
#	289794
#	298132
#	310692
#
# Disc length: 4394 seconds
#
# Revision: 0
# Processed by: cddbd v1.5.2PL0 Copyright (c) Steve Scherf et al.
# Submitted via: CDex 1.70beta2
#
DISCID=d5112810
DTITLE=Sueddeutsche Zeitung - Jazz - That’s Entertainment!
DYEAR=2011
DGENRE=Jazz
TTITLE0=George Benson: Breezin'
TTITLE1=Ronny Jordan: So What (Jazz Mix)
TTITLE2=Spyro Gyra: Morning Dance
TTITLE3=Vince Guaraldi Trio: Samba De Orpheus
TTITLE4=Cal Tjader: Vai Querer
TTITLE5=US3: Cantaloop
TTITLE6=Herbie Hancock: Just Around The Corner
TTITLE7=Roy Ayers: Stoned Soul Picnic
TTITLE8=Jamie Cullum: Just One Of Those Things
TTITLE9=Louis Armstrong and Louis Jordan: You Rascal You
TTITLE10=Grover Washington Jr.: Winelight 
TTITLE11=Nils Landgren Funk Unit: Walk Tall
TTITLE12=Lester Bowie‘s Brass Fantasy: No Shit
TTITLE13=Slim and Slam: The Flat Foot Floogie
TTITLE14=Spike Jones: The Charleston 
TTITLE15=Passport: Aguamarinha
EXTD=YEAR: 2011
EXTT0=
EXTT1=
EXTT2=
EXTT3=
EXTT4=
EXTT5=
EXTT6=
EXTT7=
EXTT8=
EXTT9=
EXTT10=
EXTT11=
EXTT12=
EXTT13=
EXTT14=
EXTT15=
PLAYORDER=
